<?xml version="1.0" encoding="UTF-8" standalone="no"?>
<svg xmlns="http://www.w3.org/2000/svg" viewBox="0 0 64 64" width="128" height="128">
  <!-- Background circle -->
  <circle cx="32" cy="32" r="30" fill="#1565c0" />
  
  <!-- Cloud shape -->
  <path d="M48,36c0-8.8-7.2-16-16-16c-7.6,0-14,5.3-15.6,12.3C11.6,33.1,8,37.2,8,42c0,5.5,4.5,10,10,10h30c4.4,0,8-3.6,8-8 C56,39.6,52.4,36,48,36z" fill="white" />
  
  <!-- DNS text -->
  <text x="32" y="42" font-family="Arial, sans-serif" font-size="12" font-weight="bold" text-anchor="middle" fill="#1565c0">DNS</text>
  
  <!-- Connection lines -->
  <line x1="24" y1="28" x2="24" y2="36" stroke="#1565c0" stroke-width="2" />
  <line x1="32" y1="28" x2="32" y2="36" stroke="#1565c0" stroke-width="2" />
  <line x1="40" y1="28" x2="40" y2="36" stroke="#1565c0" stroke-width="2" />
  
  <!-- Server nodes -->
  <circle cx="24" cy="24" r="3" fill="#f44336" />
  <circle cx="32" cy="24" r="3" fill="#4caf50" />
  <circle cx="40" cy="24" r="3" fill="#ff9800" />
</svg>